<svg xmlns="http://www.w3.org/2000/svg" width="31" height="31" viewBox="0 0 31 31">
  <metadata><?xpacket begin="﻿" id="W5M0MpCehiHzreSzNTczkc9d"?>
<x:xmpmeta xmlns:x="adobe:ns:meta/" x:xmptk="Adobe XMP Core 5.6-c138 79.159824, 2016/09/14-01:09:01        ">
   <rdf:RDF xmlns:rdf="http://www.w3.org/1999/02/22-rdf-syntax-ns#">
      <rdf:Description rdf:about=""/>
   </rdf:RDF>
</x:xmpmeta>
                                                                                                    
                                                                                                    
                                                                                                    
                                                                                                    
                                                                                                    
                                                                                                    
                                                                                                    
                                                                                                    
                                                                                                    
                                                                                                    
                                                                                                    
                                                                                                    
                                                                                                    
                                                                                                    
                                                                                                    
                                                                                                    
                                                                                                    
                                                                                                    
                                                                                                    
                                                                                                    
                           
<?xpacket end="w"?></metadata>
<defs>
    <style>
      .cls-1, .cls-2 {
        fill: #f5c506;
        fill-rule: evenodd;
      }

      .cls-1 {
        opacity: 0.5;
      }
    </style>
  </defs>
  <path id="Shape_8_copy_4" data-name="Shape 8 copy 4" class="cls-1" d="M0.806,8.324L7.77,8.057,7.724,1.038,10.7,3.9l0.047,7.02-6.965.266Zm4.513,4.347,6.964-.266L12.237,5.385,15.21,8.249l0.047,7.02-6.964.266ZM23.055,29.753l-0.047-7.019,6.965-.267L27,19.6l-6.965.266,0.047,7.02Zm-4.513-4.347-0.047-7.019,6.964-.267-2.974-2.864-6.965.266,0.047,7.02Zm3.869-24.7,0.264,7.014,6.969-.047L26.8,10.67l-6.97.047L19.567,3.7ZM18.095,5.253l0.264,7.014,6.969-.047-2.844,2.995-6.97.047L15.251,8.248ZM1.134,23.116L8.1,23.069l0.265,7.015,2.844-3-0.264-7.015-6.969.047ZM5.45,18.571l6.969-.047,0.265,7.015,2.844-3-0.264-7.015-6.969.047Z"/>
  <path id="Shape_8_copy_3" data-name="Shape 8 copy 3" class="cls-2" d="M0,20.54l4.85-5.04L0,10.459H4.111L8.962,15.5,4.111,20.54H0Zm6.244,0,4.85-5.04-4.85-5.041h4.114L15.207,15.5l-4.851,5.04H6.241Zm24.54,0-4.85-5.04,4.85-5.041H26.667L21.816,15.5l4.851,5.04h4.114Zm-6.244,0-4.85-5.04,4.851-5.041H20.422L15.572,15.5l4.851,5.04h4.114ZM10.385,0l5,4.885,5-4.885V4.141l-5,4.886-5-4.886V0Zm0,6.289,5,4.885,5-4.885V10.43l-5,4.886-5-4.886V6.286Zm0,24.716,5-4.885,5,4.885V26.859l-5-4.886-5,4.886V31Zm0-6.289,5-4.885,5,4.885V20.569l-5-4.886-5,4.886v4.144Z"/>
</svg>
